STARTFONT 2.1
FONT -FontForge-Consolas-Book-R-Normal--8-80-75-75-P-39-ISO10646-1
SIZE 8 75 75
FONTBOUNDINGBOX 6 9 -1 -2
COMMENT "Generated by fontforge, http://fontforge.sourceforge.net"
COMMENT "(c) 2018 Microsoft Corporation. All rights reserved."
STARTPROPERTIES 40
FOUNDRY "FontForge"
FAMILY_NAME "Consolas"
WEIGHT_NAME "Book"
SLANT "R"
SETWIDTH_NAME "Normal"
ADD_STYLE_NAME ""
PIXEL_SIZE 8
POINT_SIZE 80
RESOLUTION_X 75
RESOLUTION_Y 75
SPACING "P"
AVERAGE_WIDTH 39
CHARSET_REGISTRY "ISO10646"
CHARSET_ENCODING "1"
FONTNAME_REGISTRY ""
CHARSET_COLLECTIONS "ISO10646-1"
FONT_NAME "Consolas"
FACE_NAME "Consolas"
COPYRIGHT "(c) 2018 Microsoft Corporation. All rights reserved."
FONT_VERSION "7.00"
FONT_ASCENT 6
FONT_DESCENT 2
UNDERLINE_POSITION -1
UNDERLINE_THICKNESS 1
X_HEIGHT 3
CAP_HEIGHT 4
RAW_ASCENT 742
RAW_DESCENT 257
NORM_SPACE 4
RELATIVE_WEIGHT 40
RELATIVE_SETWIDTH 50
SUPERSCRIPT_X 0
SUPERSCRIPT_Y 3
SUPERSCRIPT_SIZE 5
SUBSCRIPT_X 0
SUBSCRIPT_Y 1
SUBSCRIPT_SIZE 5
FIGURE_WIDTH 4
AVG_LOWERCASE_WIDTH 40
AVG_UPPERCASE_WIDTH 40
ENDPROPERTIES
CHARS 100
STARTCHAR uni0000
ENCODING 0
SWIDTH 549 0
DWIDTH 4 0
BBX 1 1 0 0
BITMAP
00
ENDCHAR
STARTCHAR uni000D
ENCODING 13
SWIDTH 0 0
DWIDTH 0 0
BBX 1 1 0 0
BITMAP
00
ENDCHAR
STARTCHAR space
ENCODING 32
SWIDTH 549 0
DWIDTH 4 0
BBX 1 1 0 0
BITMAP
00
ENDCHAR
STARTCHAR exclam
ENCODING 33
SWIDTH 549 0
DWIDTH 4 0
BBX 1 6 2 0
BITMAP
80
80
80
80
00
80
ENDCHAR
STARTCHAR quotedbl
ENCODING 34
SWIDTH 549 0
DWIDTH 4 0
BBX 3 2 1 4
BITMAP
A0
A0
ENDCHAR
STARTCHAR numbersign
ENCODING 35
SWIDTH 549 0
DWIDTH 4 0
BBX 4 5 0 0
BITMAP
20
F0
20
F0
40
ENDCHAR
STARTCHAR dollar
ENCODING 36
SWIDTH 549 0
DWIDTH 4 0
BBX 4 7 0 -1
BITMAP
20
70
A0
60
50
F0
40
ENDCHAR
STARTCHAR percent
ENCODING 37
SWIDTH 549 0
DWIDTH 4 0
BBX 5 6 0 0
BITMAP
F0
F0
20
40
78
B8
ENDCHAR
STARTCHAR ampersand
ENCODING 38
SWIDTH 549 0
DWIDTH 4 0
BBX 4 6 0 0
BITMAP
E0
A0
C0
D0
A0
F0
ENDCHAR
STARTCHAR quotesingle
ENCODING 39
SWIDTH 549 0
DWIDTH 4 0
BBX 1 2 2 4
BITMAP
80
80
ENDCHAR
STARTCHAR parenleft
ENCODING 40
SWIDTH 549 0
DWIDTH 4 0
BBX 3 8 1 -2
BITMAP
20
40
80
80
80
80
40
20
ENDCHAR
STARTCHAR parenright
ENCODING 41
SWIDTH 549 0
DWIDTH 4 0
BBX 3 8 1 -2
BITMAP
80
40
20
20
20
20
40
80
ENDCHAR
STARTCHAR asterisk
ENCODING 42
SWIDTH 549 0
DWIDTH 4 0
BBX 1 3 2 3
BITMAP
80
80
80
ENDCHAR
STARTCHAR plus
ENCODING 43
SWIDTH 549 0
DWIDTH 4 0
BBX 5 5 0 0
BITMAP
20
20
F8
20
20
ENDCHAR
STARTCHAR comma
ENCODING 44
SWIDTH 549 0
DWIDTH 4 0
BBX 2 2 1 -1
BITMAP
40
C0
ENDCHAR
STARTCHAR hyphen
ENCODING 45
SWIDTH 549 0
DWIDTH 4 0
BBX 2 1 1 2
BITMAP
C0
ENDCHAR
STARTCHAR period
ENCODING 46
SWIDTH 549 0
DWIDTH 4 0
BBX 1 1 2 0
BITMAP
80
ENDCHAR
STARTCHAR slash
ENCODING 47
SWIDTH 549 0
DWIDTH 4 0
BBX 4 7 0 -1
BITMAP
10
20
20
40
40
80
80
ENDCHAR
STARTCHAR zero
ENCODING 48
SWIDTH 549 0
DWIDTH 4 0
BBX 4 5 0 0
BITMAP
60
B0
F0
D0
60
ENDCHAR
STARTCHAR one
ENCODING 49
SWIDTH 549 0
DWIDTH 4 0
BBX 3 5 1 0
BITMAP
C0
40
40
40
E0
ENDCHAR
STARTCHAR two
ENCODING 50
SWIDTH 549 0
DWIDTH 4 0
BBX 3 5 1 0
BITMAP
E0
A0
20
40
E0
ENDCHAR
STARTCHAR three
ENCODING 51
SWIDTH 549 0
DWIDTH 4 0
BBX 3 5 1 0
BITMAP
E0
20
60
20
E0
ENDCHAR
STARTCHAR four
ENCODING 52
SWIDTH 549 0
DWIDTH 4 0
BBX 4 5 0 0
BITMAP
60
60
A0
F0
20
ENDCHAR
STARTCHAR five
ENCODING 53
SWIDTH 549 0
DWIDTH 4 0
BBX 3 5 1 0
BITMAP
E0
80
E0
20
C0
ENDCHAR
STARTCHAR six
ENCODING 54
SWIDTH 549 0
DWIDTH 4 0
BBX 4 5 0 0
BITMAP
70
80
F0
90
60
ENDCHAR
STARTCHAR seven
ENCODING 55
SWIDTH 549 0
DWIDTH 4 0
BBX 3 5 0 0
BITMAP
E0
20
40
40
80
ENDCHAR
STARTCHAR eight
ENCODING 56
SWIDTH 549 0
DWIDTH 4 0
BBX 4 5 0 0
BITMAP
F0
90
60
90
F0
ENDCHAR
STARTCHAR nine
ENCODING 57
SWIDTH 549 0
DWIDTH 4 0
BBX 4 5 0 0
BITMAP
60
90
F0
10
E0
ENDCHAR
STARTCHAR colon
ENCODING 58
SWIDTH 549 0
DWIDTH 4 0
BBX 1 4 2 0
BITMAP
80
00
00
80
ENDCHAR
STARTCHAR semicolon
ENCODING 59
SWIDTH 549 0
DWIDTH 4 0
BBX 2 5 1 -1
BITMAP
40
00
00
40
C0
ENDCHAR
STARTCHAR less
ENCODING 60
SWIDTH 549 0
DWIDTH 4 0
BBX 3 4 1 0
BITMAP
20
40
C0
20
ENDCHAR
STARTCHAR equal
ENCODING 61
SWIDTH 549 0
DWIDTH 4 0
BBX 3 3 1 1
BITMAP
E0
00
E0
ENDCHAR
STARTCHAR greater
ENCODING 62
SWIDTH 549 0
DWIDTH 4 0
BBX 3 4 1 0
BITMAP
80
40
60
80
ENDCHAR
STARTCHAR question
ENCODING 63
SWIDTH 549 0
DWIDTH 4 0
BBX 3 6 1 0
BITMAP
C0
20
20
E0
00
80
ENDCHAR
STARTCHAR at
ENCODING 64
SWIDTH 549 0
DWIDTH 4 0
BBX 5 8 0 -2
BITMAP
30
48
B8
B8
B8
A8
80
70
ENDCHAR
STARTCHAR A
ENCODING 65
SWIDTH 549 0
DWIDTH 4 0
BBX 4 5 0 0
BITMAP
20
50
50
70
90
ENDCHAR
STARTCHAR B
ENCODING 66
SWIDTH 549 0
DWIDTH 4 0
BBX 4 5 1 0
BITMAP
F0
90
E0
90
F0
ENDCHAR
STARTCHAR C
ENCODING 67
SWIDTH 549 0
DWIDTH 4 0
BBX 3 5 0 0
BITMAP
60
80
80
80
60
ENDCHAR
STARTCHAR D
ENCODING 68
SWIDTH 549 0
DWIDTH 4 0
BBX 4 5 0 0
BITMAP
E0
90
90
90
E0
ENDCHAR
STARTCHAR E
ENCODING 69
SWIDTH 549 0
DWIDTH 4 0
BBX 3 5 1 0
BITMAP
E0
80
E0
80
E0
ENDCHAR
STARTCHAR F
ENCODING 70
SWIDTH 549 0
DWIDTH 4 0
BBX 3 5 1 0
BITMAP
E0
80
E0
80
80
ENDCHAR
STARTCHAR G
ENCODING 71
SWIDTH 549 0
DWIDTH 4 0
BBX 4 5 0 0
BITMAP
70
80
B0
90
70
ENDCHAR
STARTCHAR H
ENCODING 72
SWIDTH 549 0
DWIDTH 4 0
BBX 4 5 0 0
BITMAP
90
90
F0
90
90
ENDCHAR
STARTCHAR I
ENCODING 73
SWIDTH 549 0
DWIDTH 4 0
BBX 3 5 1 0
BITMAP
E0
40
40
40
E0
ENDCHAR
STARTCHAR J
ENCODING 74
SWIDTH 549 0
DWIDTH 4 0
BBX 3 5 1 0
BITMAP
E0
20
20
20
E0
ENDCHAR
STARTCHAR K
ENCODING 75
SWIDTH 549 0
DWIDTH 4 0
BBX 3 5 1 0
BITMAP
A0
C0
C0
C0
A0
ENDCHAR
STARTCHAR L
ENCODING 76
SWIDTH 549 0
DWIDTH 4 0
BBX 3 5 1 0
BITMAP
80
80
80
80
E0
ENDCHAR
STARTCHAR M
ENCODING 77
SWIDTH 549 0
DWIDTH 4 0
BBX 4 5 0 0
BITMAP
60
60
D0
90
90
ENDCHAR
STARTCHAR N
ENCODING 78
SWIDTH 549 0
DWIDTH 4 0
BBX 4 5 0 0
BITMAP
90
D0
D0
B0
90
ENDCHAR
STARTCHAR O
ENCODING 79
SWIDTH 549 0
DWIDTH 4 0
BBX 4 5 0 0
BITMAP
60
90
90
90
60
ENDCHAR
STARTCHAR P
ENCODING 80
SWIDTH 549 0
DWIDTH 4 0
BBX 4 5 1 0
BITMAP
F0
90
E0
80
80
ENDCHAR
STARTCHAR Q
ENCODING 81
SWIDTH 549 0
DWIDTH 4 0
BBX 4 6 0 -1
BITMAP
60
90
90
90
60
30
ENDCHAR
STARTCHAR R
ENCODING 82
SWIDTH 549 0
DWIDTH 4 0
BBX 3 5 1 0
BITMAP
E0
A0
C0
A0
A0
ENDCHAR
STARTCHAR S
ENCODING 83
SWIDTH 549 0
DWIDTH 4 0
BBX 4 5 1 0
BITMAP
F0
80
60
10
F0
ENDCHAR
STARTCHAR T
ENCODING 84
SWIDTH 549 0
DWIDTH 4 0
BBX 5 5 0 0
BITMAP
F8
20
20
20
20
ENDCHAR
STARTCHAR U
ENCODING 85
SWIDTH 549 0
DWIDTH 4 0
BBX 4 5 0 0
BITMAP
90
90
90
90
E0
ENDCHAR
STARTCHAR V
ENCODING 86
SWIDTH 549 0
DWIDTH 4 0
BBX 3 5 1 0
BITMAP
A0
A0
A0
A0
40
ENDCHAR
STARTCHAR W
ENCODING 87
SWIDTH 549 0
DWIDTH 4 0
BBX 4 5 0 0
BITMAP
90
90
D0
F0
90
ENDCHAR
STARTCHAR X
ENCODING 88
SWIDTH 549 0
DWIDTH 4 0
BBX 4 5 0 0
BITMAP
90
60
40
60
90
ENDCHAR
STARTCHAR Y
ENCODING 89
SWIDTH 549 0
DWIDTH 4 0
BBX 5 5 0 0
BITMAP
88
50
20
20
20
ENDCHAR
STARTCHAR Z
ENCODING 90
SWIDTH 549 0
DWIDTH 4 0
BBX 4 5 0 0
BITMAP
E0
20
40
80
F0
ENDCHAR
STARTCHAR bracketleft
ENCODING 91
SWIDTH 549 0
DWIDTH 4 0
BBX 2 8 1 -2
BITMAP
C0
80
80
80
80
80
80
C0
ENDCHAR
STARTCHAR backslash
ENCODING 92
SWIDTH 549 0
DWIDTH 4 0
BBX 4 7 1 -1
BITMAP
80
80
40
40
20
20
10
ENDCHAR
STARTCHAR bracketright
ENCODING 93
SWIDTH 549 0
DWIDTH 4 0
BBX 2 8 1 -2
BITMAP
C0
40
40
40
40
40
40
C0
ENDCHAR
STARTCHAR asciicircum
ENCODING 94
SWIDTH 549 0
DWIDTH 4 0
BBX 3 3 0 2
BITMAP
40
A0
A0
ENDCHAR
STARTCHAR underscore
ENCODING 95
SWIDTH 549 0
DWIDTH 4 0
BBX 4 1 0 -2
BITMAP
F0
ENDCHAR
STARTCHAR grave
ENCODING 96
SWIDTH 549 0
DWIDTH 4 0
BBX 2 2 1 5
BITMAP
80
40
ENDCHAR
STARTCHAR a
ENCODING 97
SWIDTH 549 0
DWIDTH 4 0
BBX 4 4 1 0
BITMAP
F0
F0
90
F0
ENDCHAR
STARTCHAR b
ENCODING 98
SWIDTH 549 0
DWIDTH 4 0
BBX 4 6 1 0
BITMAP
80
80
F0
90
90
E0
ENDCHAR
STARTCHAR c
ENCODING 99
SWIDTH 549 0
DWIDTH 4 0
BBX 3 4 1 0
BITMAP
60
80
80
E0
ENDCHAR
STARTCHAR d
ENCODING 100
SWIDTH 549 0
DWIDTH 4 0
BBX 4 6 0 0
BITMAP
10
10
70
90
90
F0
ENDCHAR
STARTCHAR e
ENCODING 101
SWIDTH 549 0
DWIDTH 4 0
BBX 4 4 0 0
BITMAP
70
F0
80
70
ENDCHAR
STARTCHAR f
ENCODING 102
SWIDTH 549 0
DWIDTH 4 0
BBX 4 6 0 0
BITMAP
70
40
E0
40
40
40
ENDCHAR
STARTCHAR g
ENCODING 103
SWIDTH 549 0
DWIDTH 4 0
BBX 4 6 0 -2
BITMAP
F0
90
F0
F0
90
E0
ENDCHAR
STARTCHAR h
ENCODING 104
SWIDTH 549 0
DWIDTH 4 0
BBX 3 6 1 0
BITMAP
80
80
E0
A0
A0
A0
ENDCHAR
STARTCHAR i
ENCODING 105
SWIDTH 549 0
DWIDTH 4 0
BBX 3 6 1 0
BITMAP
40
00
C0
40
40
E0
ENDCHAR
STARTCHAR j
ENCODING 106
SWIDTH 549 0
DWIDTH 4 0
BBX 3 8 1 -2
BITMAP
20
00
E0
20
20
20
20
E0
ENDCHAR
STARTCHAR k
ENCODING 107
SWIDTH 549 0
DWIDTH 4 0
BBX 4 6 1 0
BITMAP
80
80
A0
C0
A0
90
ENDCHAR
STARTCHAR l
ENCODING 108
SWIDTH 549 0
DWIDTH 4 0
BBX 3 6 1 0
BITMAP
C0
40
40
40
40
E0
ENDCHAR
STARTCHAR m
ENCODING 109
SWIDTH 549 0
DWIDTH 4 0
BBX 5 4 0 0
BITMAP
F8
A8
A8
A8
ENDCHAR
STARTCHAR n
ENCODING 110
SWIDTH 549 0
DWIDTH 4 0
BBX 3 4 1 0
BITMAP
E0
A0
A0
A0
ENDCHAR
STARTCHAR o
ENCODING 111
SWIDTH 549 0
DWIDTH 4 0
BBX 4 4 0 0
BITMAP
60
90
90
60
ENDCHAR
STARTCHAR p
ENCODING 112
SWIDTH 549 0
DWIDTH 4 0
BBX 3 6 1 -2
BITMAP
E0
A0
A0
E0
80
80
ENDCHAR
STARTCHAR q
ENCODING 113
SWIDTH 549 0
DWIDTH 4 0
BBX 4 6 0 -2
BITMAP
70
90
90
F0
10
10
ENDCHAR
STARTCHAR r
ENCODING 114
SWIDTH 549 0
DWIDTH 4 0
BBX 4 4 1 0
BITMAP
F0
90
80
80
ENDCHAR
STARTCHAR s
ENCODING 115
SWIDTH 549 0
DWIDTH 4 0
BBX 3 4 1 0
BITMAP
E0
80
60
E0
ENDCHAR
STARTCHAR t
ENCODING 116
SWIDTH 549 0
DWIDTH 4 0
BBX 4 5 0 0
BITMAP
40
F0
40
40
70
ENDCHAR
STARTCHAR u
ENCODING 117
SWIDTH 549 0
DWIDTH 4 0
BBX 3 4 1 0
BITMAP
A0
A0
A0
E0
ENDCHAR
STARTCHAR v
ENCODING 118
SWIDTH 549 0
DWIDTH 4 0
BBX 3 4 1 0
BITMAP
A0
A0
A0
40
ENDCHAR
STARTCHAR w
ENCODING 119
SWIDTH 549 0
DWIDTH 4 0
BBX 5 4 -1 0
BITMAP
88
B0
70
50
ENDCHAR
STARTCHAR x
ENCODING 120
SWIDTH 549 0
DWIDTH 4 0
BBX 4 4 0 0
BITMAP
90
60
60
90
ENDCHAR
STARTCHAR y
ENCODING 121
SWIDTH 549 0
DWIDTH 4 0
BBX 4 6 0 -2
BITMAP
50
50
50
20
20
C0
ENDCHAR
STARTCHAR z
ENCODING 122
SWIDTH 549 0
DWIDTH 4 0
BBX 3 4 1 0
BITMAP
E0
40
40
E0
ENDCHAR
STARTCHAR braceleft
ENCODING 123
SWIDTH 549 0
DWIDTH 4 0
BBX 3 8 1 -2
BITMAP
60
40
40
80
40
40
40
60
ENDCHAR
STARTCHAR bar
ENCODING 124
SWIDTH 549 0
DWIDTH 4 0
BBX 1 8 2 -2
BITMAP
80
80
80
80
80
80
80
80
ENDCHAR
STARTCHAR braceright
ENCODING 125
SWIDTH 549 0
DWIDTH 4 0
BBX 3 8 1 -2
BITMAP
C0
40
40
20
40
40
40
C0
ENDCHAR
STARTCHAR asciitilde
ENCODING 126
SWIDTH 549 0
DWIDTH 4 0
BBX 4 2 0 1
BITMAP
D0
B0
ENDCHAR
STARTCHAR space.dup1
ENCODING 160
SWIDTH 549 0
DWIDTH 4 0
BBX 1 1 0 0
BITMAP
00
ENDCHAR
STARTCHAR hyphen.dup2
ENCODING 173
SWIDTH 549 0
DWIDTH 4 0
BBX 2 1 1 2
BITMAP
C0
ENDCHAR
STARTCHAR degree
ENCODING 176
SWIDTH 549 0
DWIDTH 4 0
BBX 3 3 0 3
BITMAP
E0
A0
E0
ENDCHAR
ENDFONT
